# xmcd
#
# Track frame offsets: 
#        150
#        12304
#        22954
#        34571
#        44300
#        58254
#        71638
#        82363
#        94749
#        106249
#        117119
#        129755
#        142740
#        152174
#        167465
#        177001
#        186150
#        197064
#        207278
#        217049
#        228661
#        240943
#
# Disc length: 3366 seconds
#
# Revision: 0
# Processed by: cddbd v1.5.2PL0 Copyright (c) Steve Scherf et al.
# Submitted via: ExactAudioCopy v1.1
#
DISCID=250d2416
DTITLE=Jim Reeves - CD07_Milestones Of A Country Legend
DYEAR=2017
DGENRE=Country
TTITLE0=We Than Thee 
TTITLE1=Where  We'll Never Grew Old 
TTITLE2=I'll Fly Away 
TTITLE3=Across the Bridge
TTITLE4=Have Thine OwnWay, Lord
TTITLE5=My Catherdral
TTITLE6=The Night Watch 
TTITLE7=I'd Rather Have Jesus 
TTITLE8=Where Do I Go Frem Here 
TTITLE9=Take My Hand Precious Lord
TTITLE10=This World is Not My Home 
TTITLE11=Oh, Gentle Shepherd
TTITLE12=A Railroad Bum 
TTITLE13=Blue Side of Lonesome
TTITLE14=Waitin' for a Train
TTITLE15=I Won't Forget You
TTITLE16=My Lips Are Sealed 
TTITLE17=Most of the Time
TTITLE18=When Two Worlds Collide
TTITLE19=yender Comes A Sucker
TTITLE20=A Fallen Star 
TTITLE21=Highway to Nowhere
EXTD=
EXTT0=
EXTT1=
EXTT2=
EXTT3=
EXTT4=
EXTT5=
EXTT6=
EXTT7=
EXTT8=
EXTT9=
EXTT10=
EXTT11=
EXTT12=
EXTT13=
EXTT14=
EXTT15=
EXTT16=
EXTT17=
EXTT18=
EXTT19=
EXTT20=
EXTT21=
PLAYORDER=
